<?xml version="1.0" standalone="no"?>
<!DOCTYPE svg PUBLIC "-//W3C//DTD SVG 20010904//EN"
 "http://www.w3.org/TR/2001/REC-SVG-20010904/DTD/svg10.dtd">
<svg version="1.0" xmlns="http://www.w3.org/2000/svg"
 width="512.000000pt" height="512.000000pt" viewBox="0 0 512.000000 512.000000"
 preserveAspectRatio="xMidYMid meet">

<g transform="translate(0.000000,512.000000) scale(0.100000,-0.100000)"
fill="#000000" stroke="none">
<path d="M1 3908 c1 -719 5 -1175 10 -1120 44 491 238 972 553 1372 86 109
326 344 436 426 407 305 854 480 1332 523 55 5 -401 9 -1119 10 l-1213 1 1
-1212z"/>
<path d="M2745 5113 c201 -14 488 -75 680 -145 240 -88 505 -234 714 -396 117
-90 361 -336 447 -452 304 -406 479 -850 523 -1330 5 -60 9 354 10 1118 l1
1212 -1212 -2 c-667 -1 -1190 -3 -1163 -5z"/>
<path d="M2340 4843 c-1089 -111 -1949 -966 -2061 -2052 -15 -143 -6 -461 16
-591 167 -990 919 -1739 1914 -1907 83 -14 161 -18 356 -18 267 1 346 10 550
61 859 216 1521 911 1694 1779 56 281 56 610 0 890 -197 982 -1009 1727 -2001
1834 -90 10 -386 13 -468 4z m397 -983 c18 -10 39 -29 47 -42 29 -46 919
-2103 919 -2126 0 -13 -6 -29 -12 -35 -16 -16 -402 -23 -452 -8 -60 18 -82 52
-154 228 -72 177 -90 207 -142 229 -41 18 -735 20 -780 3 -53 -20 -73 -51
-140 -223 -76 -195 -101 -230 -174 -241 -73 -11 -406 -2 -420 12 -6 6 -11 22
-11 35 0 19 859 2025 907 2118 8 15 29 37 47 49 30 19 48 21 183 21 131 0 154
-3 182 -20z"/>
<path d="M2522 3168 c-19 -23 -222 -553 -222 -581 0 -51 25 -57 240 -57 218 0
244 6 247 55 3 42 -217 589 -238 593 -9 2 -21 -3 -27 -10z"/>
<path d="M1 1213 l-1 -1213 1213 1 c763 1 1177 5 1117 10 -480 44 -924 219
-1330 523 -110 82 -350 317 -436 426 -161 205 -322 489 -408 722 -69 187 -127
448 -145 649 -5 56 -9 -394 -10 -1118z"/>
<path d="M5106 2324 c-32 -458 -238 -969 -550 -1364 -81 -102 -312 -331 -416
-411 -254 -197 -550 -351 -841 -438 -178 -54 -324 -80 -569 -104 -19 -2 511
-5 1178 -5 l1212 -2 0 1210 c0 666 -2 1210 -4 1210 -1 0 -6 -43 -10 -96z"/>
</g>
</svg>
